<svg width="25" height="25" viewBox="0 0 25 25" fill="none" xmlns="http://www.w3.org/2000/svg">
<path d="M25 12.5C25 5.59139 19.4094 0 12.5 0C5.59139 0 0 5.59063 0 12.5C0 19.3474 5.5439 25 12.5 25C19.4275 25 25 19.3789 25 12.5ZM12.5 1.46484C18.5848 1.46484 23.5352 6.41518 23.5352 12.5C23.5352 14.7259 22.8731 16.8653 21.6454 18.6775C16.7152 13.3743 8.29372 13.3648 3.35464 18.6775C2.12688 16.8653 1.46484 14.7259 1.46484 12.5C1.46484 6.41518 6.41518 1.46484 12.5 1.46484ZM4.26826 19.8486C8.65173 14.9319 16.3494 14.933 20.7315 19.8486C16.3334 24.7692 8.66833 24.7707 4.26826 19.8486Z" fill="#F58633"/>
<path d="M12.5 13.2324C14.9231 13.2324 16.8945 11.261 16.8945 8.83789V7.37305C16.8945 4.94995 14.9231 2.97852 12.5 2.97852C10.0769 2.97852 8.10547 4.94995 8.10547 7.37305V8.83789C8.10547 11.261 10.0769 13.2324 12.5 13.2324ZM9.57031 7.37305C9.57031 5.75752 10.8845 4.44336 12.5 4.44336C14.1155 4.44336 15.4297 5.75752 15.4297 7.37305V8.83789C15.4297 10.4534 14.1155 11.7676 12.5 11.7676C10.8845 11.7676 9.57031 10.4534 9.57031 8.83789V7.37305Z" fill="#F58633"/>
</svg>
