<svg width="268" height="250" viewBox="0 0 268 250" fill="none" xmlns="http://www.w3.org/2000/svg">
<g clip-path="url(#clip0)">
<path d="M8.36328 50.7812H175.627V183.594H8.36328V117.187V50.7812Z" fill="white"/>
<path d="M257.168 110.352L232.078 86.9141L175.627 85.9375V183.594L259.259 179.688L257.168 110.352Z" fill="white"/>
<path d="M217.443 207.031C231.3 207.031 242.532 196.538 242.532 183.594C242.532 170.65 231.3 160.156 217.443 160.156C203.586 160.156 192.354 170.65 192.354 183.594C192.354 196.538 203.586 207.031 217.443 207.031Z" fill="#3E3D42"/>
<path d="M54.361 207.031C68.2175 207.031 79.4504 196.538 79.4504 183.594C79.4504 170.65 68.2175 160.156 54.361 160.156C40.5044 160.156 29.2715 170.65 29.2715 183.594C29.2715 196.538 40.5044 207.031 54.361 207.031Z" fill="#3E3D42"/>
<path d="M259.259 144.531H192.354V97.6562H246.714L259.259 105.469V144.531Z" fill="#F58633"/>
<path d="M37.6348 128.906H137.993V140.625H37.6348V128.906Z" fill="#57565C"/>
<path d="M79.4507 89.8438H96.177C105.049 89.8438 113.558 93.1361 119.832 98.9967C126.105 104.857 129.63 112.806 129.63 121.094V128.906H45.998V121.094C45.998 112.806 49.5225 104.857 55.7961 98.9967C62.0697 93.1361 70.5785 89.8438 79.4507 89.8438Z" fill="#F58633"/>
<path d="M79.4492 78.125H96.1755V89.8438H79.4492V78.125Z" fill="#57565C"/>
<g filter="url(#filter0_d)">
<path d="M262.214 106.613L237.125 83.1757C236.341 82.4431 235.277 82.0314 234.169 82.0312H179.808V50.7812C179.808 49.7452 179.367 48.7516 178.583 48.0191C177.799 47.2865 176.735 46.875 175.626 46.875H8.36322C7.2542 46.875 6.1906 47.2865 5.4064 48.0191C4.6222 48.7516 4.18164 49.7452 4.18164 50.7812V183.594C4.18164 184.63 4.6222 185.623 5.4064 186.356C6.1906 187.088 7.2542 187.5 8.36322 187.5H25.4241C26.3362 193.439 29.3199 198.931 33.9127 203.125H16.7264C15.6174 203.125 14.5538 203.537 13.7696 204.269C12.9854 205.002 12.5448 205.995 12.5448 207.031C12.5448 208.067 12.9854 209.061 13.7696 209.793C14.5538 210.526 15.6174 210.937 16.7264 210.937H54.3606C61.3934 210.93 68.1881 208.557 73.5017 204.253C78.8153 199.949 82.2925 194.002 83.2971 187.5L188.41 186.906C189.211 193.068 192.239 198.789 196.994 203.125H158.9C157.791 203.125 156.727 203.537 155.943 204.269C155.159 205.002 154.719 205.995 154.719 207.031C154.719 208.067 155.159 209.061 155.943 209.793C156.727 210.526 157.791 210.937 158.9 210.937H217.442C225.092 210.931 232.435 208.127 237.9 203.126C243.364 198.125 246.516 191.324 246.68 184.18L259.463 183.594C260.536 183.545 261.548 183.111 262.288 182.384C263.029 181.657 263.441 180.691 263.44 179.687V109.375C263.439 108.339 262.999 107.346 262.214 106.613ZM54.3606 203.125C50.2254 203.125 46.1831 201.979 42.7448 199.833C39.3065 197.687 36.6267 194.637 35.0442 191.068C33.4618 187.499 33.0477 183.572 33.8544 179.783C34.6612 175.995 36.6525 172.515 39.5765 169.783C42.5005 167.052 46.2259 165.191 50.2817 164.438C54.3374 163.684 58.5413 164.071 62.3617 165.549C66.1821 167.027 69.4475 169.531 71.7449 172.743C74.0423 175.955 75.2685 179.731 75.2685 183.594C75.2619 188.772 73.057 193.736 69.1374 197.398C65.2178 201.059 59.9037 203.119 54.3606 203.125ZM171.445 179.687H83.2971C82.2973 173.184 78.8212 167.235 73.5062 162.933C68.1912 158.63 61.3938 156.261 54.3606 156.261C47.3274 156.261 40.53 158.63 35.215 162.933C29.9001 167.235 26.4239 173.184 25.4241 179.687H12.5448V117.187V54.6875H171.445V179.687ZM217.442 203.125C213.307 203.125 209.265 201.979 205.826 199.833C202.388 197.687 199.708 194.637 198.126 191.068C196.543 187.499 196.129 183.572 196.936 179.783C197.743 175.995 199.734 172.515 202.658 169.783C205.582 167.052 209.308 165.191 213.363 164.438C217.419 163.684 221.623 164.071 225.443 165.549C229.264 167.027 232.529 169.531 234.827 172.743C237.124 175.955 238.35 179.731 238.35 183.594C238.344 188.772 236.139 193.736 232.219 197.398C228.299 201.059 222.985 203.119 217.442 203.125ZM255.076 175.969L245.651 176.402C243.905 170.388 240.01 165.113 234.612 161.452C229.213 157.792 222.637 155.966 215.975 156.278C209.313 156.591 202.966 159.023 197.987 163.17C193.008 167.317 189.698 172.931 188.606 179.078L179.825 179.469V89.8437H232.437L240.801 97.6562H192.353C191.244 97.6562 190.18 98.0678 189.396 98.8003C188.612 99.5329 188.171 100.526 188.171 101.562V144.531C188.171 145.567 188.612 146.561 189.396 147.293C190.18 148.026 191.244 148.437 192.353 148.437H255.076V175.969ZM255.076 140.625H196.534V105.469H249.164L255.076 110.992V140.625Z" fill="#231F20"/>
</g>
<path d="M146.355 203.125H142.174C141.065 203.125 140.001 203.537 139.217 204.269C138.433 205.002 137.992 205.995 137.992 207.031C137.992 208.067 138.433 209.061 139.217 209.793C140.001 210.526 141.065 210.937 142.174 210.937H146.355C147.464 210.937 148.528 210.526 149.312 209.793C150.096 209.061 150.537 208.067 150.537 207.031C150.537 205.995 150.096 205.002 149.312 204.269C148.528 203.537 147.464 203.125 146.355 203.125Z" fill="#231F20"/>
<path d="M37.6347 144.531H137.993C139.102 144.531 140.165 144.12 140.949 143.387C141.734 142.655 142.174 141.661 142.174 140.625V128.906C142.174 127.87 141.734 126.877 140.949 126.144C140.165 125.412 139.102 125 137.993 125H133.811V121.094C133.798 112.451 130.381 104.115 124.211 97.674C118.042 91.2331 109.552 87.1376 100.358 86.1679V78.1249C100.358 77.0889 99.9179 76.0954 99.1337 75.3628C98.3495 74.6302 97.2859 74.2187 96.1768 74.2187H79.4505C78.3415 74.2187 77.2779 74.6302 76.4937 75.3628C75.7095 76.0954 75.2689 77.0889 75.2689 78.1249V86.1679C66.0754 87.1376 57.5851 91.2331 51.4159 97.674C45.2466 104.115 41.8297 112.451 41.8163 121.094V125H37.6347C36.5257 125 35.4621 125.412 34.6779 126.144C33.8937 126.877 33.4531 127.87 33.4531 128.906V140.625C33.4531 141.661 33.8937 142.655 34.6779 143.387C35.4621 144.12 36.5257 144.531 37.6347 144.531ZM83.6321 82.0312H91.9953V85.9374H83.6321V82.0312ZM50.1794 121.094C50.1883 113.844 53.2751 106.894 58.7625 101.768C64.25 96.6417 71.6901 93.7582 79.4505 93.7499H96.1768C103.937 93.7582 111.377 96.6417 116.865 101.768C122.352 106.894 125.439 113.844 125.448 121.094V125H50.1794V121.094ZM41.8163 132.812H133.811V136.719H41.8163V132.812Z" fill="#231F20"/>
<path d="M100.357 164.062C99.2483 164.062 98.1847 164.474 97.4005 165.207C96.6163 165.939 96.1758 166.933 96.1758 167.969C96.1758 169.005 96.6163 169.998 97.4005 170.731C98.1847 171.463 99.2483 171.875 100.357 171.875H142.173C143.282 171.875 144.346 171.463 145.13 170.731C145.914 169.998 146.355 169.005 146.355 167.969C146.355 166.933 145.914 165.939 145.13 165.207C144.346 164.474 143.282 164.062 142.173 164.062H100.357Z" fill="#231F20"/>
<path d="M154.719 171.875H158.9C160.009 171.875 161.073 171.463 161.857 170.731C162.641 169.998 163.082 169.005 163.082 167.969C163.082 166.933 162.641 165.939 161.857 165.207C161.073 164.474 160.009 164.062 158.9 164.062H154.719C153.61 164.062 152.546 164.474 151.762 165.207C150.978 165.939 150.537 166.933 150.537 167.969C150.537 169.005 150.978 169.998 151.762 170.731C152.546 171.463 153.61 171.875 154.719 171.875Z" fill="#231F20"/>
</g>
<defs>
<filter id="filter0_d" x="0.181641" y="46.875" width="267.258" height="172.062" filterUnits="userSpaceOnUse" color-interpolation-filters="sRGB">
<feFlood flood-opacity="0" result="BackgroundImageFix"/>
<feColorMatrix in="SourceAlpha" type="matrix" values="0 0 0 0 0 0 0 0 0 0 0 0 0 0 0 0 0 0 127 0"/>
<feOffset dy="4"/>
<feGaussianBlur stdDeviation="2"/>
<feColorMatrix type="matrix" values="0 0 0 0 0 0 0 0 0 0 0 0 0 0 0 0 0 0 0.25 0"/>
<feBlend mode="normal" in2="BackgroundImageFix" result="effect1_dropShadow"/>
<feBlend mode="normal" in="SourceGraphic" in2="effect1_dropShadow" result="shape"/>
</filter>
<clipPath id="clip0">
<rect width="267.621" height="250" fill="white"/>
</clipPath>
</defs>
</svg>
