<svg width="12" height="12" viewBox="0 0 12 12" fill="none" xmlns="http://www.w3.org/2000/svg">
<path d="M10.2424 1.75758C9.10859 0.623737 7.60354 0 6 0C4.39646 0 2.89141 0.623737 1.75758 1.75758C0.623737 2.89141 0 4.39646 0 6C0 7.60354 0.623737 9.10859 1.75758 10.2424C2.89141 11.3763 4.39646 12 6 12C7.60354 12 9.10859 11.3763 10.2424 10.2424C11.3763 9.10859 12 7.60354 12 6C12 4.39646 11.3763 2.89141 10.2424 1.75758ZM9.7601 9.7601C8.75505 10.7652 7.41919 11.3182 6 11.3182C4.58081 11.3182 3.24495 10.7652 2.2399 9.7601C0.166667 7.68687 0.166667 4.31313 2.2399 2.2399C3.24495 1.23485 4.58081 0.681818 6 0.681818C7.41919 0.681818 8.75505 1.23485 9.7601 2.2399C11.8333 4.31313 11.8333 7.68687 9.7601 9.7601Z" fill="#57565C"/>
<path d="M8.64412 3.35606C8.51028 3.22222 8.29564 3.22222 8.1618 3.35606L6.00018 5.51767L3.83856 3.35606C3.70472 3.22222 3.49008 3.22222 3.35624 3.35606C3.2224 3.48989 3.2224 3.70454 3.35624 3.83838L5.51786 5.99999L3.35624 8.16161C3.2224 8.29545 3.2224 8.5101 3.35624 8.64393C3.42189 8.70959 3.51028 8.74494 3.59614 8.74494C3.682 8.74494 3.77038 8.71212 3.83604 8.64393L5.99765 6.48232L8.15927 8.64393C8.22493 8.70959 8.31331 8.74494 8.39917 8.74494C8.48756 8.74494 8.57342 8.71212 8.63907 8.64393C8.77291 8.5101 8.77291 8.29545 8.63907 8.16161L6.4825 5.99999L8.64412 3.83838C8.77796 3.70454 8.77796 3.48989 8.64412 3.35606Z" fill="#57565C"/>
</svg>
