<svg width="91" height="91" viewBox="0 0 91 91" fill="none" xmlns="http://www.w3.org/2000/svg">
<g clip-path="url(#clip0)">
<circle cx="77.5" cy="17.5" r="10.5" fill="#F58633"/>
<path d="M11.6666 87.5689H65.332C73.06 87.5612 79.3237 81.2982 79.3314 73.5695V31.3603C86.9552 30.0718 92.0908 22.8471 90.8022 15.2233C89.5136 7.59944 82.2883 2.46388 74.6652 3.75246C67.9237 4.89177 62.9916 10.7341 62.9985 17.5706H11.6666C5.2265 17.5783 0.00763704 22.7971 0 29.2372V75.9023C0.00763704 82.3424 5.2265 87.5612 11.6666 87.5689ZM74.6652 73.5695C74.6652 78.7238 70.4863 82.9027 65.332 82.9027H11.6666C7.80018 82.9027 4.66622 79.7687 4.66622 75.9023V72.5288L26.5033 58.8814L29.3665 61.2149C35.3761 66.0651 43.9553 66.0651 49.9649 61.2149L52.8274 58.8814L74.6645 72.5288L74.6652 73.5695ZM4.66692 67.0364V41.1371L22.675 55.769L4.66692 67.0364ZM56.6563 55.7829L74.6652 41.1364V67.0364L56.6563 55.7829ZM76.9979 8.23748C82.1529 8.23748 86.3311 12.4163 86.3311 17.5706C86.3311 22.7249 82.1529 26.9038 76.9979 26.9038C71.8436 26.9038 67.6648 22.7249 67.6648 17.5706C67.6648 12.4163 71.8436 8.23748 76.9979 8.23748ZM4.66692 29.2372C4.66692 25.3715 7.80018 22.2369 11.6666 22.2369H63.815C65.516 27.0162 69.6643 30.505 74.6652 31.3603V35.1261L47.0205 57.5866C42.7299 61.0434 36.6105 61.0434 32.3206 57.5866L4.66692 35.1261V29.2372Z" fill="black"/>
</g>
<defs>
<clipPath id="clip0">
<rect width="91" height="91" fill="white"/>
</clipPath>
</defs>
</svg>
