<svg width="25" height="25" viewBox="0 0 25 25" fill="none" xmlns="http://www.w3.org/2000/svg">
<path d="M16.1458 10.7693H16.1245C16.0506 10.1826 15.7653 9.64306 15.322 9.25176C14.8787 8.86046 14.3079 8.64428 13.7166 8.64374H13.5527C13.7154 8.46215 13.8393 8.24932 13.917 8.01823C14.119 7.97171 14.2992 7.85811 14.4282 7.69597C14.5572 7.53383 14.6275 7.33273 14.6275 7.12551C14.6275 6.9183 14.5572 6.7172 14.4282 6.55506C14.2992 6.39292 14.119 6.27932 13.917 6.2328C13.7942 5.87418 13.5627 5.56275 13.2547 5.34181C12.9467 5.12086 12.5775 5.00139 12.1984 5H9.76925C9.39019 5.00139 9.02098 5.12086 8.71297 5.34181C8.40495 5.56275 8.17344 5.87418 8.05062 6.2328C7.84869 6.27932 7.6685 6.39292 7.53946 6.55506C7.41043 6.7172 7.34017 6.9183 7.34017 7.12551C7.34017 7.33273 7.41043 7.53383 7.53946 7.69597C7.6685 7.85811 7.84869 7.97171 8.05062 8.01823C8.13451 8.2654 8.27129 8.4913 8.45143 8.68018C7.93822 8.76835 7.46684 9.01888 7.10664 9.39494C6.74643 9.77099 6.51641 10.2527 6.45041 10.7693H6.42916C6.18756 10.7693 5.95586 10.8652 5.78503 11.0361C5.6142 11.2069 5.51822 11.4386 5.51822 11.6802C5.51822 11.9218 5.6142 12.1535 5.78503 12.3243C5.95586 12.4952 6.18756 12.5911 6.42916 12.5911H6.45041C6.52478 13.1805 6.81334 13.722 7.26115 14.1124C6.68403 14.1316 6.13263 14.3558 5.70584 14.7448C5.27905 15.1337 5.00477 15.662 4.93219 16.2349H4.91093C4.66934 16.2349 4.43764 16.3308 4.26681 16.5017C4.09597 16.6725 4 16.9042 4 17.1458C4 17.3874 4.09597 17.6191 4.26681 17.7899C4.43764 17.9608 4.66934 18.0567 4.91093 18.0567H4.93219C5.0061 18.6434 5.29145 19.1829 5.73473 19.5742C6.17802 19.9655 6.74881 20.1817 7.34009 20.1822H12.1984C12.7897 20.1817 13.3605 19.9655 13.8038 19.5742C14.2471 19.1829 14.5324 18.6434 14.6063 18.0567H14.6276C14.8692 18.0567 15.1009 17.9608 15.2717 17.7899C15.4425 17.6191 15.5385 17.3874 15.5385 17.1458C15.5385 16.9042 15.4425 16.6725 15.2717 16.5017C15.1009 16.3308 14.8692 16.2349 14.6276 16.2349H14.6063C14.532 15.6455 14.2434 15.104 13.7956 14.7136C14.3727 14.6944 14.9241 14.4702 15.3509 14.0812C15.7777 13.6923 16.052 13.164 16.1245 12.5911H16.1458C16.3874 12.5911 16.6191 12.4952 16.7899 12.3243C16.9608 12.1535 17.0567 11.9218 17.0567 11.6802C17.0567 11.4386 16.9608 11.2069 16.7899 11.0361C16.6191 10.8652 16.3874 10.7693 16.1458 10.7693ZM9.76925 5.60729H12.1984C12.4113 5.60803 12.6203 5.66447 12.8046 5.77101C12.9889 5.87755 13.1421 6.03047 13.249 6.21458H8.71864C8.82554 6.03047 8.97875 5.87755 9.16307 5.77101C9.34738 5.66447 9.55637 5.60803 9.76925 5.60729ZM8.2237 7.42916C8.14317 7.42916 8.06594 7.39717 8.00899 7.34022C7.95205 7.28328 7.92006 7.20605 7.92006 7.12551C7.92006 7.04498 7.95205 6.96775 8.00899 6.91081C8.06594 6.85386 8.14317 6.82187 8.2237 6.82187H13.744C13.8245 6.82187 13.9017 6.85386 13.9587 6.91081C14.0156 6.96775 14.0476 7.04498 14.0476 7.12551C14.0476 7.20605 14.0156 7.28328 13.9587 7.34022C13.9017 7.39717 13.8245 7.42916 13.744 7.42916H8.2237ZM13.249 8.03645C13.1421 8.22056 12.9889 8.37348 12.8046 8.48002C12.6203 8.58656 12.4113 8.643 12.1984 8.64374H9.76925C9.55637 8.643 9.34738 8.58656 9.16307 8.48002C8.97875 8.37348 8.82554 8.22056 8.71864 8.03645H13.249ZM8.85832 9.25103H13.7166C14.1467 9.25189 14.5627 9.40472 14.8911 9.68252C15.2194 9.96032 15.4391 10.3452 15.5112 10.7693H7.06378C7.13588 10.3452 7.35551 9.96032 7.68387 9.68252C8.01223 9.40472 8.42821 9.25189 8.85832 9.25103ZM12.1984 19.575H7.34009C6.90998 19.5741 6.49401 19.4213 6.16565 19.1435C5.83728 18.8657 5.61766 18.4808 5.54555 18.0567H13.993C13.9209 18.4808 13.7012 18.8657 13.3729 19.1435C13.0445 19.4213 12.6285 19.5741 12.1984 19.575ZM14.6276 16.8422C14.7081 16.8422 14.7853 16.8741 14.8423 16.9311C14.8992 16.988 14.9312 17.0653 14.9312 17.1458C14.9312 17.2263 14.8992 17.3036 14.8423 17.3605C14.7853 17.4175 14.7081 17.4494 14.6276 17.4494H4.91093C4.8304 17.4494 4.75317 17.4175 4.69623 17.3605C4.63928 17.3036 4.60729 17.2263 4.60729 17.1458C4.60729 17.0653 4.63928 16.988 4.69623 16.9311C4.75317 16.8741 4.8304 16.8422 4.91093 16.8422H14.6276ZM13.993 16.2349H5.54555C5.61766 15.8108 5.83728 15.4259 6.16565 15.1481C6.49401 14.8703 6.90998 14.7175 7.34009 14.7166H12.1984C12.6285 14.7175 13.0445 14.8703 13.3729 15.1481C13.7012 15.4259 13.9209 15.8108 13.993 16.2349ZM13.7166 14.1093H8.85832C8.42821 14.1085 8.01223 13.9557 7.68387 13.6779C7.35551 13.4001 7.13588 13.0151 7.06378 12.5911H15.5112C15.4391 13.0151 15.2194 13.4001 14.8911 13.6779C14.5627 13.9557 14.1467 14.1085 13.7166 14.1093ZM16.1458 11.9838H6.42916C6.34863 11.9838 6.27139 11.9518 6.21445 11.8949C6.15751 11.838 6.12551 11.7607 6.12551 11.6802C6.12551 11.5997 6.15751 11.5224 6.21445 11.4655C6.27139 11.4085 6.34863 11.3765 6.42916 11.3765H16.1458C16.2263 11.3765 16.3036 11.4085 16.3605 11.4655C16.4175 11.5224 16.4494 11.5997 16.4494 11.6802C16.4494 11.7607 16.4175 11.838 16.3605 11.8949C16.3036 11.9518 16.2263 11.9838 16.1458 11.9838Z" fill="#333333"/>
<path d="M21.5085 17.7713C21.3769 17.3902 21.1228 17.0635 20.7858 16.8422C21.1228 16.6208 21.3769 16.2941 21.5085 15.913C21.7104 15.8665 21.8906 15.7529 22.0197 15.5907C22.1487 15.4286 22.219 15.2275 22.219 15.0203C22.219 14.8131 22.1487 14.612 22.0197 14.4498C21.8906 14.2877 21.7104 14.1741 21.5085 14.1276C21.3857 13.769 21.1542 13.4575 20.8462 13.2366C20.5381 13.0156 20.1689 12.8962 19.7899 12.8948H17.3607C16.9817 12.8962 16.6124 13.0156 16.3044 13.2366C15.9964 13.4575 15.7649 13.769 15.6421 14.1276C15.4402 14.1741 15.26 14.2877 15.1309 14.4498C15.0019 14.612 14.9316 14.8131 14.9316 15.0203C14.9316 15.2275 15.0019 15.4286 15.1309 15.5907C15.26 15.7529 15.4402 15.8665 15.6421 15.913C15.7737 16.2941 16.0278 16.6208 16.3648 16.8422C16.0278 17.0635 15.7737 17.3902 15.6421 17.7713C15.4402 17.8178 15.26 17.9314 15.1309 18.0936C15.0019 18.2557 14.9316 18.4568 14.9316 18.664C14.9316 18.8712 15.0019 19.0723 15.1309 19.2345C15.26 19.3966 15.4402 19.5102 15.6421 19.5567C15.7649 19.9154 15.9964 20.2268 16.3044 20.4477C16.6124 20.6687 16.9817 20.7882 17.3607 20.7895H19.7899C20.1689 20.7882 20.5381 20.6687 20.8462 20.4477C21.1542 20.2268 21.3857 19.9154 21.5085 19.5567C21.7104 19.5102 21.8906 19.3966 22.0197 19.2345C22.1487 19.0723 22.219 18.8712 22.219 18.664C22.219 18.4568 22.1487 18.2557 22.0197 18.0936C21.8906 17.9314 21.7104 17.8178 21.5085 17.7713ZM17.3607 13.5021H19.7899C20.0028 13.5028 20.2118 13.5592 20.3961 13.6658C20.5804 13.7723 20.7336 13.9252 20.8405 14.1094H16.3101C16.417 13.9252 16.5702 13.7723 16.7545 13.6658C16.9388 13.5592 17.1478 13.5028 17.3607 13.5021ZM15.8152 15.3239C15.7346 15.3239 15.6574 15.2919 15.6005 15.235C15.5435 15.1781 15.5115 15.1008 15.5115 15.0203C15.5115 14.9398 15.5435 14.8625 15.6005 14.8056C15.6574 14.7486 15.7346 14.7166 15.8152 14.7166H21.3354C21.416 14.7166 21.4932 14.7486 21.5501 14.8056C21.6071 14.8625 21.6391 14.9398 21.6391 15.0203C21.6391 15.1008 21.6071 15.1781 21.5501 15.235C21.4932 15.2919 21.416 15.3239 21.3354 15.3239H15.8152ZM16.3101 15.9312H20.8405C20.7336 16.1153 20.5804 16.2683 20.3961 16.3748C20.2118 16.4813 20.0028 16.5378 19.7899 16.5385H17.3607C17.1478 16.5378 16.9388 16.4813 16.7545 16.3748C16.5702 16.2683 16.417 16.1153 16.3101 15.9312ZM17.3607 17.1458H19.7899C20.0028 17.1465 20.2118 17.203 20.3961 17.3095C20.5804 17.4161 20.7336 17.569 20.8405 17.7531H16.3101C16.417 17.569 16.5702 17.4161 16.7545 17.3095C16.9388 17.203 17.1478 17.1465 17.3607 17.1458ZM19.7899 20.1823H17.3607C17.1478 20.1815 16.9388 20.1251 16.7545 20.0185C16.5702 19.912 16.417 19.7591 16.3101 19.575H20.8405C20.7336 19.7591 20.5804 19.912 20.3961 20.0185C20.2118 20.1251 20.0028 20.1815 19.7899 20.1823ZM21.3354 18.9677H15.8152C15.7346 18.9677 15.6574 18.9357 15.6005 18.8787C15.5435 18.8218 15.5115 18.7446 15.5115 18.664C15.5115 18.5835 15.5435 18.5063 15.6005 18.4493C15.6574 18.3924 15.7346 18.3604 15.8152 18.3604H21.3354C21.416 18.3604 21.4932 18.3924 21.5501 18.4493C21.6071 18.5063 21.6391 18.5835 21.6391 18.664C21.6391 18.7446 21.6071 18.8218 21.5501 18.8787C21.4932 18.9357 21.416 18.9677 21.3354 18.9677Z" fill="#333333"/>
</svg>
