<svg width="25" height="25" viewBox="0 0 25 25" fill="none" xmlns="http://www.w3.org/2000/svg">
<g clip-path="url(#clip0)">
<path d="M20.7038 18.0145C20.4437 17.366 20.3124 16.6825 20.3124 15.9836V10.9375C20.3124 7.43714 17.9827 4.50185 14.8039 3.51154C14.6149 2.40737 13.6573 1.5625 12.5 1.5625C11.3427 1.5625 10.385 2.40737 10.1961 3.51154C7.01723 4.50185 4.68752 7.43714 4.68752 10.9375V15.9836C4.68752 16.6825 4.55629 17.366 4.29613 18.0145L3.18068 20.8038C3.08452 21.0449 3.1143 21.3165 3.25924 21.5317C3.40496 21.7468 3.64679 21.875 3.90621 21.875H9.84503C10.399 22.8165 11.387 23.4375 12.5 23.4375C13.613 23.4375 14.601 22.8165 15.1549 21.875H21.0937C21.3531 21.875 21.5949 21.7468 21.7407 21.5317C21.8856 21.3165 21.9154 21.0449 21.8192 20.8038C21.8193 20.8038 20.7038 18.0145 20.7038 18.0145ZM5.05979 20.3125L5.7472 18.5943C6.08061 17.7612 6.24997 16.8823 6.24997 15.9835V10.9375C6.24997 7.49049 9.05374 4.68745 12.5 4.68745C15.9462 4.68745 18.7499 7.49049 18.7499 10.9375V15.9835C18.7499 16.8823 18.9193 17.7612 19.2527 18.5943L19.9401 20.3125H5.05979Z" fill="#F58633"/>
<path d="M1.47171 6.61768C0.50886 8.42127 0 10.4552 0 12.4999C0 14.5446 0.50886 16.5786 1.47171 18.3822L2.84957 17.6467C1.99585 16.0461 1.5625 14.3142 1.5625 12.4999C1.5625 10.6857 1.99585 8.95382 2.84957 7.35313L1.47171 6.61768Z" fill="#F58633"/>
<path d="M23.5283 6.61768L22.1504 7.35313C23.0041 8.95376 23.4375 10.6856 23.4375 12.4999C23.4375 14.3142 23.0041 16.046 22.1504 17.6467L23.5283 18.3822C24.4911 16.5786 25 14.5446 25 12.4999C25 10.4553 24.4911 8.42127 23.5283 6.61768Z" fill="#F58633"/>
</g>
<defs>
<clipPath id="clip0">
<rect width="25" height="25" fill="white"/>
</clipPath>
</defs>
</svg>
