<svg width="29" height="26" viewBox="0 0 29 26" fill="none" xmlns="http://www.w3.org/2000/svg">
<path d="M26.1043 14.3957L21.2551 9.54649C21.1465 9.43723 21.0174 9.35062 20.8751 9.29168C20.7328 9.23274 20.5802 9.20264 20.4262 9.20313H13.7188V9.98438H15.6719V15.8438H16.4531V9.98438H20.4262C20.4775 9.98434 20.5284 9.99443 20.5758 10.0141C20.6233 10.0337 20.6664 10.0625 20.7027 10.0988L21.3695 10.7656H19.5781C19.3709 10.7656 19.1722 10.8479 19.0257 10.9945C18.8792 11.141 18.7969 11.3397 18.7969 11.5469V15.0625C18.7969 15.2697 18.8792 15.4684 19.0257 15.6149C19.1722 15.7614 19.3709 15.8438 19.5781 15.8438H25.4375V18.9688C25.4375 19.0724 25.3963 19.1717 25.3231 19.245C25.2498 19.3182 25.1505 19.3594 25.0469 19.3594H24.2344C24.141 18.709 23.8162 18.1142 23.3197 17.6839C22.8232 17.2536 22.1883 17.0167 21.5312 17.0167C20.8742 17.0167 20.2393 17.2536 19.7428 17.6839C19.2463 18.1142 18.9215 18.709 18.8281 19.3594H13.2969C13.2035 18.709 12.8787 18.1142 12.3822 17.6839C11.8857 17.2536 11.2508 17.0167 10.5938 17.0167C9.93674 17.0167 9.30175 17.2536 8.80525 17.6839C8.30875 18.1142 7.98402 18.709 7.89062 19.3594H7.07812C6.97452 19.3594 6.87517 19.3182 6.80191 19.245C6.72866 19.1717 6.6875 19.0724 6.6875 18.9688V15.4531H5.90625V18.9688C5.90625 19.2796 6.02971 19.5776 6.24948 19.7974C6.46925 20.0172 6.76732 20.1406 7.07812 20.1406H7.89062C7.97589 20.7346 8.25476 21.2838 8.68398 21.7031H2.78125V22.4844H21.5312C22.1881 22.4831 22.8226 22.2457 23.3188 21.8154C23.8151 21.3851 24.1401 20.7907 24.2344 20.1406H25.0469C25.3577 20.1406 25.6557 20.0172 25.8755 19.7974C26.0953 19.5776 26.2188 19.2796 26.2188 18.9688V14.6719C26.2187 14.5683 26.1776 14.4689 26.1043 14.3957ZM8.64062 19.75C8.64062 19.3637 8.75517 18.9861 8.96979 18.6649C9.1844 18.3437 9.48943 18.0934 9.84632 17.9456C10.2032 17.7977 10.5959 17.759 10.9748 17.8344C11.3537 17.9098 11.7017 18.0958 11.9748 18.3689C12.248 18.6421 12.434 18.9901 12.5093 19.369C12.5847 19.7478 12.546 20.1405 12.3982 20.4974C12.2504 20.8543 12 21.1594 11.6788 21.374C11.3577 21.5886 10.98 21.7031 10.5938 21.7031C10.0759 21.7025 9.57951 21.4965 9.21337 21.1304C8.84722 20.7642 8.64125 20.2678 8.64062 19.75ZM12.5035 21.7031C12.9327 21.2838 13.2116 20.7346 13.2969 20.1406H18.8281C18.9134 20.7346 19.1923 21.2838 19.6215 21.7031H12.5035ZM21.5312 21.7031C21.145 21.7031 20.7673 21.5886 20.4462 21.374C20.125 21.1594 19.8746 20.8543 19.7268 20.4974C19.579 20.1405 19.5403 19.7478 19.6157 19.369C19.691 18.9901 19.877 18.6421 20.1502 18.3689C20.4233 18.0958 20.7713 17.9098 21.1502 17.8344C21.5291 17.759 21.9218 17.7977 22.2787 17.9456C22.6356 18.0934 22.9406 18.3437 23.1552 18.6649C23.3698 18.9861 23.4844 19.3637 23.4844 19.75C23.4838 20.2678 23.2778 20.7642 22.9116 21.1304C22.5455 21.4965 22.0491 21.7025 21.5312 21.7031ZM19.5781 15.0625V11.5469H22.1508L25.4375 14.8336V15.0625H19.5781Z" fill="#F58633"/>
<path d="M10.9844 19.3594H10.2031V20.1406H10.9844V19.3594Z" fill="#F58633"/>
<path d="M21.9219 19.3594H21.1406V20.1406H21.9219V19.3594Z" fill="#F58633"/>
<path d="M4.73438 18.1875H2.78125V18.9688H4.73438V18.1875Z" fill="#F58633"/>
<path d="M4.73438 16.625H3.5625V17.4062H4.73438V16.625Z" fill="#F58633"/>
<path d="M4.73438 15.0625H3.95312V15.8438H4.73438V15.0625Z" fill="#F58633"/>
<path d="M7.85938 14.6719C8.86373 14.6719 9.84554 14.374 10.6806 13.816C11.5157 13.2581 12.1666 12.465 12.551 11.5371C12.9353 10.6092 13.0359 9.58811 12.8399 8.60305C12.644 7.61799 12.1603 6.71316 11.4502 6.00297C10.74 5.29279 9.83513 4.80914 8.85007 4.6132C7.86501 4.41726 6.84397 4.51783 5.91606 4.90218C4.98815 5.28653 4.19506 5.9374 3.63707 6.77249C3.07908 7.60759 2.78125 8.58939 2.78125 9.59374C2.7828 10.9401 3.31831 12.2308 4.27031 13.1828C5.22231 14.1348 6.51305 14.6703 7.85938 14.6719ZM7.85938 5.29688C8.70922 5.29688 9.53997 5.54888 10.2466 6.02103C10.9532 6.49318 11.5039 7.16425 11.8292 7.9494C12.1544 8.73455 12.2395 9.59851 12.0737 10.432C11.9079 11.2655 11.4987 12.0312 10.8977 12.6321C10.2968 13.233 9.53117 13.6423 8.69765 13.8081C7.86414 13.9738 7.00018 13.8888 6.21503 13.5635C5.42988 13.2383 4.7588 12.6876 4.28665 11.981C3.81451 11.2743 3.5625 10.4436 3.5625 9.59374C3.56384 8.45456 4.01698 7.36241 4.82251 6.55688C5.62804 5.75136 6.72019 5.29822 7.85938 5.29688Z" fill="#F58633"/>
<path d="M7.85938 13.1094C7.96297 13.1094 8.06231 13.0682 8.13555 12.9949C8.38711 12.7434 10.5938 10.4883 10.5938 8.8125C10.5938 8.0873 10.3057 7.3918 9.79287 6.87901C9.28008 6.36621 8.58458 6.07812 7.85938 6.07812C7.13417 6.07812 6.43867 6.36621 5.92588 6.87901C5.41309 7.3918 5.125 8.0873 5.125 8.8125C5.125 10.4883 7.33164 12.7434 7.5832 12.9949C7.65644 13.0682 7.75578 13.1094 7.85938 13.1094ZM7.85938 6.85938C8.37719 6.86 8.87361 7.06597 9.23976 7.43212C9.60591 7.79826 9.81188 8.29469 9.8125 8.8125C9.8125 9.81484 8.5832 11.3637 7.85938 12.1527C7.13555 11.3637 5.90625 9.81484 5.90625 8.8125C5.90687 8.29469 6.11284 7.79826 6.47899 7.43212C6.84514 7.06597 7.34156 6.86 7.85938 6.85938Z" fill="#F58633"/>
<path d="M9.03125 8.8125C9.03125 8.58072 8.96252 8.35415 8.83375 8.16144C8.70498 7.96873 8.52196 7.81853 8.30783 7.72983C8.0937 7.64113 7.85807 7.61793 7.63075 7.66314C7.40343 7.70836 7.19462 7.81997 7.03073 7.98386C6.86684 8.14775 6.75523 8.35656 6.71002 8.58388C6.6648 8.8112 6.68801 9.04682 6.7767 9.26096C6.8654 9.47509 7.0156 9.65811 7.20832 9.78688C7.40103 9.91564 7.6276 9.98437 7.85937 9.98437C8.17017 9.98437 8.46824 9.86091 8.68801 9.64114C8.90778 9.42137 9.03125 9.1233 9.03125 8.8125ZM7.46875 8.8125C7.46875 8.73524 7.49166 8.65972 7.53458 8.59548C7.5775 8.53124 7.63851 8.48117 7.70989 8.45161C7.78127 8.42204 7.85981 8.41431 7.93558 8.42938C8.01135 8.44445 8.08096 8.48166 8.13559 8.53629C8.19022 8.59092 8.22742 8.66052 8.24249 8.73629C8.25757 8.81207 8.24983 8.89061 8.22026 8.96198C8.1907 9.03336 8.14063 9.09437 8.07639 9.13729C8.01216 9.18021 7.93663 9.20312 7.85937 9.20312C7.75577 9.20312 7.65642 9.16197 7.58316 9.08871C7.5099 9.01546 7.46875 8.9161 7.46875 8.8125Z" fill="#F58633"/>
<path d="M19.1875 16.625H17.625V17.4062H19.1875V16.625Z" fill="#F58633"/>
<rect x="0.5" y="0.5" width="28" height="24" rx="1.5" stroke="#F58633"/>
</svg>
