<svg width="25" height="25" viewBox="0 0 25 25" fill="none" xmlns="http://www.w3.org/2000/svg">
<path d="M24.1043 13.3957L19.2551 8.54649C19.1465 8.43723 19.0174 8.35062 18.8751 8.29168C18.7328 8.23274 18.5802 8.20264 18.4262 8.20313H11.7188V8.98438H13.6719V14.8438H14.4531V8.98438H18.4262C18.4775 8.98434 18.5284 8.99443 18.5758 9.01407C18.6233 9.03371 18.6664 9.06251 18.7027 9.09883L19.3695 9.76563H17.5781C17.3709 9.76563 17.1722 9.84794 17.0257 9.99445C16.8792 10.141 16.7969 10.3397 16.7969 10.5469V14.0625C16.7969 14.2697 16.8792 14.4684 17.0257 14.6149C17.1722 14.7614 17.3709 14.8438 17.5781 14.8438H23.4375V17.9688C23.4375 18.0724 23.3963 18.1717 23.3231 18.245C23.2498 18.3182 23.1505 18.3594 23.0469 18.3594H22.2344C22.141 17.709 21.8162 17.1142 21.3197 16.6839C20.8232 16.2536 20.1883 16.0167 19.5312 16.0167C18.8742 16.0167 18.2393 16.2536 17.7428 16.6839C17.2463 17.1142 16.9215 17.709 16.8281 18.3594H11.2969C11.2035 17.709 10.8787 17.1142 10.3822 16.6839C9.88575 16.2536 9.25076 16.0167 8.59375 16.0167C7.93674 16.0167 7.30175 16.2536 6.80525 16.6839C6.30875 17.1142 5.98402 17.709 5.89062 18.3594H5.07812C4.97452 18.3594 4.87517 18.3182 4.80191 18.245C4.72866 18.1717 4.6875 18.0724 4.6875 17.9688V14.4531H3.90625V17.9688C3.90625 18.2796 4.02971 18.5776 4.24948 18.7974C4.46925 19.0172 4.76732 19.1406 5.07812 19.1406H5.89062C5.97589 19.7346 6.25476 20.2838 6.68398 20.7031H0.78125V21.4844H19.5312C20.1881 21.4831 20.8226 21.2457 21.3188 20.8154C21.8151 20.3851 22.1401 19.7907 22.2344 19.1406H23.0469C23.3577 19.1406 23.6557 19.0172 23.8755 18.7974C24.0953 18.5776 24.2188 18.2796 24.2188 17.9688V13.6719C24.2187 13.5683 24.1776 13.4689 24.1043 13.3957ZM6.64062 18.75C6.64062 18.3637 6.75517 17.9861 6.96979 17.6649C7.1844 17.3437 7.48943 17.0934 7.84632 16.9456C8.20321 16.7977 8.59592 16.759 8.97479 16.8344C9.35365 16.9098 9.70167 17.0958 9.97482 17.3689C10.248 17.6421 10.434 17.9901 10.5093 18.369C10.5847 18.7478 10.546 19.1405 10.3982 19.4974C10.2504 19.8543 10 20.1594 9.67885 20.374C9.35766 20.5886 8.98004 20.7031 8.59375 20.7031C8.07594 20.7025 7.57951 20.4965 7.21337 20.1304C6.84722 19.7642 6.64125 19.2678 6.64062 18.75ZM10.5035 20.7031C10.9327 20.2838 11.2116 19.7346 11.2969 19.1406H16.8281C16.9134 19.7346 17.1923 20.2838 17.6215 20.7031H10.5035ZM19.5312 20.7031C19.145 20.7031 18.7673 20.5886 18.4462 20.374C18.125 20.1594 17.8746 19.8543 17.7268 19.4974C17.579 19.1405 17.5403 18.7478 17.6157 18.369C17.691 17.9901 17.877 17.6421 18.1502 17.3689C18.4233 17.0958 18.7713 16.9098 19.1502 16.8344C19.5291 16.759 19.9218 16.7977 20.2787 16.9456C20.6356 17.0934 20.9406 17.3437 21.1552 17.6649C21.3698 17.9861 21.4844 18.3637 21.4844 18.75C21.4838 19.2678 21.2778 19.7642 20.9116 20.1304C20.5455 20.4965 20.0491 20.7025 19.5312 20.7031ZM17.5781 14.0625V10.5469H20.1508L23.4375 13.8336V14.0625H17.5781Z" fill="#333333"/>
<path d="M8.98438 18.3594H8.20312V19.1406H8.98438V18.3594Z" fill="#333333"/>
<path d="M19.9219 18.3594H19.1406V19.1406H19.9219V18.3594Z" fill="#333333"/>
<path d="M2.73438 17.1875H0.78125V17.9688H2.73438V17.1875Z" fill="#333333"/>
<path d="M2.73438 15.625H1.5625V16.4062H2.73438V15.625Z" fill="#333333"/>
<path d="M2.73438 14.0625H1.95312V14.8438H2.73438V14.0625Z" fill="#333333"/>
<path d="M5.85938 13.6719C6.86373 13.6719 7.84554 13.374 8.68063 12.816C9.51572 12.2581 10.1666 11.465 10.551 10.5371C10.9353 9.60915 11.0359 8.58811 10.8399 7.60305C10.644 6.61799 10.1603 5.71316 9.45015 5.00297C8.73996 4.29279 7.83513 3.80914 6.85007 3.6132C5.86501 3.41726 4.84397 3.51783 3.91606 3.90218C2.98815 4.28653 2.19506 4.9374 1.63707 5.77249C1.07908 6.60759 0.78125 7.58939 0.78125 8.59374C0.782801 9.94007 1.31831 11.2308 2.27031 12.1828C3.22231 13.1348 4.51305 13.6703 5.85938 13.6719ZM5.85938 4.29688C6.70922 4.29688 7.53997 4.54888 8.24659 5.02103C8.95321 5.49318 9.50395 6.16425 9.82917 6.9494C10.1544 7.73455 10.2395 8.59851 10.0737 9.43202C9.90789 10.2655 9.49865 11.0312 8.89773 11.6321C8.2968 12.233 7.53117 12.6423 6.69765 12.8081C5.86414 12.9738 5.00018 12.8888 4.21503 12.5635C3.42988 12.2383 2.7588 11.6876 2.28665 10.981C1.81451 10.2743 1.5625 9.44359 1.5625 8.59374C1.56384 7.45456 2.01698 6.36241 2.82251 5.55688C3.62804 4.75136 4.72019 4.29822 5.85938 4.29688Z" fill="#333333"/>
<path d="M5.85938 12.1094C5.96297 12.1094 6.06231 12.0682 6.13555 11.9949C6.38711 11.7434 8.59375 9.48828 8.59375 7.8125C8.59375 7.0873 8.30566 6.3918 7.79287 5.87901C7.28008 5.36621 6.58458 5.07812 5.85938 5.07812C5.13417 5.07812 4.43867 5.36621 3.92588 5.87901C3.41309 6.3918 3.125 7.0873 3.125 7.8125C3.125 9.48828 5.33164 11.7434 5.5832 11.9949C5.65644 12.0682 5.75578 12.1094 5.85938 12.1094ZM5.85938 5.85938C6.37719 5.86 6.87361 6.06597 7.23976 6.43212C7.60591 6.79826 7.81188 7.29469 7.8125 7.8125C7.8125 8.81484 6.5832 10.3637 5.85938 11.1527C5.13555 10.3637 3.90625 8.81484 3.90625 7.8125C3.90687 7.29469 4.11284 6.79826 4.47899 6.43212C4.84514 6.06597 5.34156 5.86 5.85938 5.85938Z" fill="#333333"/>
<path d="M7.03125 7.8125C7.03125 7.58072 6.96252 7.35415 6.83375 7.16144C6.70498 6.96873 6.52196 6.81853 6.30783 6.72983C6.0937 6.64113 5.85807 6.61793 5.63075 6.66314C5.40343 6.70836 5.19462 6.81997 5.03073 6.98386C4.86684 7.14775 4.75523 7.35656 4.71002 7.58388C4.6648 7.8112 4.68801 8.04682 4.7767 8.26096C4.8654 8.47509 5.0156 8.65811 5.20832 8.78688C5.40103 8.91564 5.6276 8.98437 5.85937 8.98437C6.17017 8.98437 6.46824 8.86091 6.68801 8.64114C6.90778 8.42137 7.03125 8.1233 7.03125 7.8125ZM5.46875 7.8125C5.46875 7.73524 5.49166 7.65972 5.53458 7.59548C5.5775 7.53124 5.63851 7.48117 5.70989 7.45161C5.78127 7.42204 5.85981 7.41431 5.93558 7.42938C6.01135 7.44445 6.08096 7.48166 6.13559 7.53629C6.19022 7.59092 6.22742 7.66052 6.24249 7.73629C6.25757 7.81207 6.24983 7.89061 6.22026 7.96198C6.1907 8.03336 6.14063 8.09437 6.07639 8.13729C6.01216 8.18021 5.93663 8.20312 5.85937 8.20312C5.75577 8.20312 5.65642 8.16197 5.58316 8.08871C5.5099 8.01546 5.46875 7.9161 5.46875 7.8125Z" fill="#333333"/>
<path d="M17.1875 15.625H15.625V16.4062H17.1875V15.625Z" fill="#333333"/>
</svg>
