<svg width="19" height="25" viewBox="0 0 19 25" fill="none" xmlns="http://www.w3.org/2000/svg">
<path d="M17.89 8.03375H14.4236V4.46587C14.4236 2.00329 12.213 0 9.4958 0C6.77879 0 4.56817 2.00329 4.56817 4.46587V8.03375H1.10156C0.697014 8.03375 0.369141 8.36182 0.369141 8.76617V18.133C0.369141 21.9194 3.4497 25 7.23617 25H11.7556C15.5421 25 18.6227 21.9194 18.6227 18.133V8.76617C18.6225 8.36182 18.2946 8.03375 17.89 8.03375ZM6.03301 4.46587C6.03301 2.81105 7.58636 1.46484 9.4958 1.46484C11.4053 1.46484 12.9588 2.81105 12.9588 4.46587V8.03375H6.03301V4.46587ZM17.1576 18.133C17.1576 21.1117 14.7343 23.5352 11.7554 23.5352H7.23617C4.25746 23.5352 1.83398 21.1117 1.83398 18.133V9.4986H17.1576V18.133Z" fill="#F58633"/>
</svg>
