<svg width="25" height="25" viewBox="0 0 25 25" fill="none" xmlns="http://www.w3.org/2000/svg">
<path d="M12.4961 18.7664C12.9006 18.7664 13.2285 18.4384 13.2285 18.034V15C13.2285 14.5955 12.9006 14.2676 12.4961 14.2676C12.0917 14.2676 11.7637 14.5955 11.7637 15V18.034C11.7637 18.4384 12.0917 18.7664 12.4961 18.7664Z" fill="#333333"/>
<path d="M20.89 8.03375H17.4236V4.46587C17.4236 2.00329 15.213 0 12.4958 0C9.77879 0 7.56817 2.00329 7.56817 4.46587V8.03375H4.10156C3.69701 8.03375 3.36914 8.36182 3.36914 8.76617V18.133C3.36914 21.9194 6.4497 25 10.2362 25H14.7556C18.5421 25 21.6227 21.9194 21.6227 18.133V8.76617C21.6225 8.36182 21.2946 8.03375 20.89 8.03375ZM9.03301 4.46587C9.03301 2.81105 10.5864 1.46484 12.4958 1.46484C14.4053 1.46484 15.9588 2.81105 15.9588 4.46587V8.03375H9.03301V4.46587ZM20.1576 18.133C20.1576 21.1117 17.7343 23.5352 14.7554 23.5352H10.2362C7.25746 23.5352 4.83398 21.1117 4.83398 18.133V9.4986H20.1576V18.133Z" fill="#333333"/>
</svg>
