<svg width="19" height="16" viewBox="0 0 19 16" fill="none" xmlns="http://www.w3.org/2000/svg">
<path d="M12.1458 5.76925H12.1245C12.0506 5.18261 11.7653 4.64306 11.322 4.25176C10.8787 3.86046 10.3079 3.64428 9.71664 3.64374H9.55267C9.71536 3.46215 9.83934 3.24932 9.91704 3.01823C10.119 2.97171 10.2992 2.85811 10.4282 2.69597C10.5572 2.53383 10.6275 2.33273 10.6275 2.12551C10.6275 1.9183 10.5572 1.7172 10.4282 1.55506C10.2992 1.39292 10.119 1.27932 9.91704 1.2328C9.79423 0.874183 9.56271 0.56275 9.2547 0.341806C8.94668 0.120863 8.57747 0.00138936 8.19841 0H5.76925C5.39019 0.00138936 5.02098 0.120863 4.71297 0.341806C4.40495 0.56275 4.17344 0.874183 4.05062 1.2328C3.84869 1.27932 3.6685 1.39292 3.53946 1.55506C3.41043 1.7172 3.34017 1.9183 3.34017 2.12551C3.34017 2.33273 3.41043 2.53383 3.53946 2.69597C3.6685 2.85811 3.84869 2.97171 4.05062 3.01823C4.13451 3.2654 4.27129 3.4913 4.45143 3.68018C3.93822 3.76835 3.46684 4.01888 3.10664 4.39494C2.74643 4.77099 2.51641 5.25272 2.45041 5.76925H2.42916C2.18756 5.76925 1.95586 5.86523 1.78503 6.03606C1.6142 6.20689 1.51822 6.43859 1.51822 6.68019C1.51822 6.92178 1.6142 7.15348 1.78503 7.32432C1.95586 7.49515 2.18756 7.59112 2.42916 7.59112H2.45041C2.52478 8.18053 2.81334 8.722 3.26115 9.11238C2.68403 9.13162 2.13263 9.35582 1.70584 9.74478C1.27905 10.1337 1.00477 10.662 0.93219 11.2349H0.910935C0.66934 11.2349 0.43764 11.3308 0.266807 11.5017C0.0959732 11.6725 0 11.9042 0 12.1458C0 12.3874 0.0959732 12.6191 0.266807 12.7899C0.43764 12.9608 0.66934 13.0567 0.910935 13.0567H0.93219C1.0061 13.6434 1.29145 14.1829 1.73473 14.5742C2.17802 14.9655 2.74881 15.1817 3.34009 15.1822H8.19841C8.7897 15.1817 9.36049 14.9655 9.80377 14.5742C10.2471 14.1829 10.5324 13.6434 10.6063 13.0567H10.6276C10.8692 13.0567 11.1009 12.9608 11.2717 12.7899C11.4425 12.6191 11.5385 12.3874 11.5385 12.1458C11.5385 11.9042 11.4425 11.6725 11.2717 11.5017C11.1009 11.3308 10.8692 11.2349 10.6276 11.2349H10.6063C10.532 10.6455 10.2434 10.104 9.79558 9.7136C10.3727 9.69436 10.9241 9.47016 11.3509 9.08121C11.7777 8.69225 12.052 8.16398 12.1245 7.59112H12.1458C12.3874 7.59112 12.6191 7.49515 12.7899 7.32432C12.9608 7.15348 13.0567 6.92178 13.0567 6.68019C13.0567 6.43859 12.9608 6.20689 12.7899 6.03606C12.6191 5.86523 12.3874 5.76925 12.1458 5.76925ZM5.76925 0.60729H8.19841C8.4113 0.608027 8.62029 0.664471 8.8046 0.77101C8.98891 0.877549 9.14213 1.03047 9.24902 1.21458H4.71864C4.82554 1.03047 4.97875 0.877549 5.16307 0.77101C5.34738 0.664471 5.55637 0.608027 5.76925 0.60729ZM4.2237 2.42916C4.14317 2.42916 4.06594 2.39717 4.00899 2.34022C3.95205 2.28328 3.92006 2.20605 3.92006 2.12551C3.92006 2.04498 3.95205 1.96775 4.00899 1.91081C4.06594 1.85386 4.14317 1.82187 4.2237 1.82187H9.74397C9.8245 1.82187 9.90173 1.85386 9.95868 1.91081C10.0156 1.96775 10.0476 2.04498 10.0476 2.12551C10.0476 2.20605 10.0156 2.28328 9.95868 2.34022C9.90173 2.39717 9.8245 2.42916 9.74397 2.42916H4.2237ZM9.24902 3.03645C9.14213 3.22056 8.98891 3.37348 8.8046 3.48002C8.62029 3.58656 8.4113 3.643 8.19841 3.64374H5.76925C5.55637 3.643 5.34738 3.58656 5.16307 3.48002C4.97875 3.37348 4.82554 3.22056 4.71864 3.03645H9.24902ZM4.85832 4.25103H9.71664C10.1467 4.25189 10.5627 4.40472 10.8911 4.68252C11.2194 4.96032 11.4391 5.34523 11.5112 5.76925H3.06378C3.13588 5.34523 3.35551 4.96032 3.68387 4.68252C4.01223 4.40472 4.42821 4.25189 4.85832 4.25103ZM8.19841 14.575H3.34009C2.90998 14.5741 2.49401 14.4213 2.16565 14.1435C1.83728 13.8657 1.61766 13.4808 1.54555 13.0567H9.99295C9.92085 13.4808 9.70122 13.8657 9.37286 14.1435C9.0445 14.4213 8.62852 14.5741 8.19841 14.575ZM10.6276 11.8422C10.7081 11.8422 10.7853 11.8741 10.8423 11.9311C10.8992 11.988 10.9312 12.0653 10.9312 12.1458C10.9312 12.2263 10.8992 12.3036 10.8423 12.3605C10.7853 12.4175 10.7081 12.4494 10.6276 12.4494H0.910935C0.830403 12.4494 0.75317 12.4175 0.696225 12.3605C0.639281 12.3036 0.60729 12.2263 0.60729 12.1458C0.60729 12.0653 0.639281 11.988 0.696225 11.9311C0.75317 11.8741 0.830403 11.8422 0.910935 11.8422H10.6276ZM9.99295 11.2349H1.54555C1.61766 10.8108 1.83728 10.4259 2.16565 10.1481C2.49401 9.87032 2.90998 9.7175 3.34009 9.71664H8.19841C8.62852 9.7175 9.0445 9.87032 9.37286 10.1481C9.70122 10.4259 9.92085 10.8108 9.99295 11.2349ZM9.71664 9.10935H4.85832C4.42821 9.10849 4.01223 8.95566 3.68387 8.67786C3.35551 8.40006 3.13588 8.01515 3.06378 7.59112H11.5112C11.4391 8.01515 11.2194 8.40006 10.8911 8.67786C10.5627 8.95566 10.1467 9.10849 9.71664 9.10935ZM12.1458 6.98383H2.42916C2.34863 6.98383 2.27139 6.95184 2.21445 6.8949C2.15751 6.83795 2.12551 6.76072 2.12551 6.68019C2.12551 6.59966 2.15751 6.52242 2.21445 6.46548C2.27139 6.40853 2.34863 6.37654 2.42916 6.37654H12.1458C12.2263 6.37654 12.3036 6.40853 12.3605 6.46548C12.4175 6.52242 12.4494 6.59966 12.4494 6.68019C12.4494 6.76072 12.4175 6.83795 12.3605 6.8949C12.3036 6.95184 12.2263 6.98383 12.1458 6.98383Z" fill="#F58633"/>
<path d="M17.5085 12.7713C17.3769 12.3902 17.1228 12.0635 16.7858 11.8422C17.1228 11.6208 17.3769 11.2941 17.5085 10.913C17.7104 10.8665 17.8906 10.7529 18.0197 10.5907C18.1487 10.4286 18.219 10.2275 18.219 10.0203C18.219 9.81307 18.1487 9.61197 18.0197 9.44983C17.8906 9.28769 17.7104 9.17409 17.5085 9.12757C17.3857 8.76896 17.1542 8.45753 16.8462 8.23658C16.5381 8.01564 16.1689 7.89616 15.7899 7.89478H13.3607C12.9817 7.89616 12.6124 8.01564 12.3044 8.23658C11.9964 8.45753 11.7649 8.76896 11.6421 9.12757C11.4402 9.17409 11.26 9.28769 11.1309 9.44983C11.0019 9.61197 10.9316 9.81307 10.9316 10.0203C10.9316 10.2275 11.0019 10.4286 11.1309 10.5907C11.26 10.7529 11.4402 10.8665 11.6421 10.913C11.7737 11.2941 12.0278 11.6208 12.3648 11.8422C12.0278 12.0635 11.7737 12.3902 11.6421 12.7713C11.4402 12.8178 11.26 12.9314 11.1309 13.0936C11.0019 13.2557 10.9316 13.4568 10.9316 13.664C10.9316 13.8712 11.0019 14.0723 11.1309 14.2345C11.26 14.3966 11.4402 14.5102 11.6421 14.5567C11.7649 14.9154 11.9964 15.2268 12.3044 15.4477C12.6124 15.6687 12.9817 15.7882 13.3607 15.7895H15.7899C16.1689 15.7882 16.5381 15.6687 16.8462 15.4477C17.1542 15.2268 17.3857 14.9154 17.5085 14.5567C17.7104 14.5102 17.8906 14.3966 18.0197 14.2345C18.1487 14.0723 18.219 13.8712 18.219 13.664C18.219 13.4568 18.1487 13.2557 18.0197 13.0936C17.8906 12.9314 17.7104 12.8178 17.5085 12.7713ZM13.3607 8.50207H15.7899C16.0028 8.5028 16.2118 8.55925 16.3961 8.66579C16.5804 8.77232 16.7336 8.92525 16.8405 9.10936H12.3101C12.417 8.92525 12.5702 8.77232 12.7545 8.66579C12.9388 8.55925 13.1478 8.5028 13.3607 8.50207ZM11.8152 10.3239C11.7346 10.3239 11.6574 10.2919 11.6005 10.235C11.5435 10.1781 11.5115 10.1008 11.5115 10.0203C11.5115 9.93976 11.5435 9.86252 11.6005 9.80558C11.6574 9.74864 11.7346 9.71665 11.8152 9.71665H17.3354C17.416 9.71665 17.4932 9.74864 17.5501 9.80558C17.6071 9.86252 17.6391 9.93976 17.6391 10.0203C17.6391 10.1008 17.6071 10.1781 17.5501 10.235C17.4932 10.2919 17.416 10.3239 17.3354 10.3239H11.8152ZM12.3101 10.9312H16.8405C16.7336 11.1153 16.5804 11.2683 16.3961 11.3748C16.2118 11.4813 16.0028 11.5378 15.7899 11.5385H13.3607C13.1478 11.5378 12.9388 11.4813 12.7545 11.3748C12.5702 11.2683 12.417 11.1153 12.3101 10.9312ZM13.3607 12.1458H15.7899C16.0028 12.1465 16.2118 12.203 16.3961 12.3095C16.5804 12.4161 16.7336 12.569 16.8405 12.7531H12.3101C12.417 12.569 12.5702 12.4161 12.7545 12.3095C12.9388 12.203 13.1478 12.1465 13.3607 12.1458ZM15.7899 15.1823H13.3607C13.1478 15.1815 12.9388 15.1251 12.7545 15.0185C12.5702 14.912 12.417 14.7591 12.3101 14.575H16.8405C16.7336 14.7591 16.5804 14.912 16.3961 15.0185C16.2118 15.1251 16.0028 15.1815 15.7899 15.1823ZM17.3354 13.9677H11.8152C11.7346 13.9677 11.6574 13.9357 11.6005 13.8787C11.5435 13.8218 11.5115 13.7446 11.5115 13.664C11.5115 13.5835 11.5435 13.5063 11.6005 13.4493C11.6574 13.3924 11.7346 13.3604 11.8152 13.3604H17.3354C17.416 13.3604 17.4932 13.3924 17.5501 13.4493C17.6071 13.5063 17.6391 13.5835 17.6391 13.664C17.6391 13.7446 17.6071 13.8218 17.5501 13.8787C17.4932 13.9357 17.416 13.9677 17.3354 13.9677Z" fill="#F58633"/>
</svg>
