<svg width="25" height="25" viewBox="0 0 25 25" fill="none" xmlns="http://www.w3.org/2000/svg">
<g clip-path="url(#clip0)">
<path d="M23.4923 13.0529C23.091 13.0045 22.7261 13.2917 22.6782 13.6934C22.0763 18.7367 17.781 22.5401 12.6871 22.5401C10.3441 22.5401 8.06299 21.7185 6.26382 20.2267C4.67883 18.9126 3.53406 17.1394 2.98857 15.176L3.86365 15.6566C4.21822 15.8514 4.66339 15.7218 4.85812 15.3673C5.05286 15.0127 4.92335 14.5673 4.56878 14.3726L2.3212 13.1382C1.96701 12.9436 1.52203 13.0728 1.3271 13.4268L0.090969 15.6715C-0.10415 16.0259 0.0249758 16.4712 0.379165 16.6664C0.836159 16.8758 1.19149 16.6829 1.37402 16.3782L1.66146 15.8561C2.31586 17.9914 3.59166 19.9139 5.32885 21.3544C7.39028 23.0635 10.0035 24.0048 12.6869 24.0048C18.5223 24.0048 23.4429 19.6465 24.1325 13.8668C24.1806 13.4653 23.8937 13.1008 23.4923 13.0529Z" fill="#F58633"/>
<path d="M24.5578 7.2311C24.1867 7.07107 23.7554 7.24216 23.5954 7.61351L23.3648 8.14833C22.6128 6.31253 21.3854 4.67567 19.813 3.43916C17.7645 1.82823 15.3007 0.976807 12.688 0.976807C10.0281 0.976807 7.43297 1.90319 5.3805 3.58564C3.35626 5.24462 1.94561 7.56011 1.40851 10.1052C1.32497 10.501 1.57826 10.8895 1.97403 10.9731C2.46307 10.9891 2.769 10.7524 2.84167 10.4077C3.3103 8.18743 4.54166 6.167 6.30899 4.71839C8.10034 3.25014 10.3659 2.44163 12.688 2.44163C14.969 2.44163 17.1199 3.18472 18.9076 4.59041C20.357 5.73023 21.4705 7.25875 22.114 8.96924L21.1868 8.57042C20.8155 8.41077 20.3844 8.58224 20.2246 8.95379C20.0648 9.32533 20.2364 9.7562 20.608 9.91603L22.9639 10.9294C23.3871 11.06 23.7455 10.9872 23.9259 10.5466L24.9404 8.19353C25.1007 7.82218 24.9294 7.39131 24.5578 7.2311Z" fill="#F58633"/>
<rect x="9.69922" y="14" width="6" height="0.5" fill="#F58633"/>
<rect x="9.69922" y="12" width="6" height="0.5" fill="#F58633"/>
<path d="M14.412 14.888L10.884 10.4H10.292V16H10.908V11.408L14.524 16H15.028V10.4H14.412V14.888Z" fill="#F58633"/>
</g>
<defs>
<clipPath id="clip0">
<rect width="25" height="25" fill="white"/>
</clipPath>
</defs>
</svg>
