<svg width="30" height="26" viewBox="0 0 30 26" fill="none" xmlns="http://www.w3.org/2000/svg">
<path d="M29.3202 3.55336C28.8489 3.7624 28.3643 3.93882 27.8692 4.08204C28.4554 3.41914 28.9023 2.63914 29.1751 1.78559C29.2363 1.59427 29.1729 1.38485 29.0156 1.25972C28.8586 1.13449 28.6403 1.11949 28.4674 1.22198C27.416 1.84559 26.2816 2.29375 25.0921 2.55581C23.894 1.38504 22.2666 0.71875 20.5843 0.71875C17.0331 0.71875 14.1441 3.60775 14.1441 7.15878C14.1441 7.43846 14.1618 7.71659 14.1968 7.99085C9.79018 7.60394 5.69344 5.43804 2.88021 1.98717C2.77996 1.86417 2.6255 1.79788 2.46738 1.81056C2.30915 1.82294 2.16699 1.91217 2.08705 2.0493C1.51647 3.02836 1.21483 4.14814 1.21483 5.28746C1.21483 6.83923 1.76886 8.31156 2.74754 9.46201C2.44996 9.35894 2.16118 9.23014 1.88557 9.07714C1.7376 8.99478 1.55702 8.99604 1.41002 9.08033C1.26292 9.16462 1.1707 9.31965 1.16683 9.48911C1.16615 9.51765 1.16615 9.5462 1.16615 9.57514C1.16615 11.8914 2.41279 13.9768 4.31876 15.1134C4.15502 15.0971 3.99138 15.0734 3.82879 15.0423C3.66118 15.0103 3.48883 15.069 3.37579 15.1968C3.26257 15.3246 3.22512 15.5027 3.27728 15.6652C3.98276 17.8678 5.79912 19.4879 7.99492 19.9818C6.17373 21.1225 4.09105 21.72 1.90473 21.72C1.44854 21.72 0.98973 21.6932 0.540698 21.6401C0.317633 21.6136 0.104343 21.7453 0.0283754 21.9574C-0.0475924 22.1696 0.0329238 22.4062 0.222698 22.5279C3.03138 24.3288 6.27902 25.2806 9.61434 25.2806C16.1712 25.2806 20.273 22.1887 22.5592 19.5948C25.4102 16.3606 27.0453 12.0796 27.0453 7.84965C27.0453 7.67294 27.0426 7.49449 27.0372 7.31662C28.162 6.46917 29.1304 5.44356 29.9184 4.26475C30.0381 4.08572 30.0252 3.84911 29.8865 3.6843C29.748 3.5194 29.5172 3.46607 29.3202 3.55336Z" fill="white"/>
</svg>
